<?xml version="1.0" encoding="UTF-8"?>
<svg id="Layer_1" xmlns="http://www.w3.org/2000/svg" version="1.1" viewBox="0 0 14 20">
  <!-- Generator: Adobe Illustrator 29.1.0, SVG Export Plug-In . SVG Version: 2.1.0 Build 142)  -->
  <defs>
    <style>
      .st0 {
        fill: #00ac20;
      }
    </style>
  </defs>
  <path class="st0" d="M13.2,9c.4,0,.7.3.7.6h0v.6c0,3.6-2.8,6.5-6.2,6.7v2.3c0,.4-.3.8-.8.8s-.7-.3-.7-.6h0c0-.1,0-2.4,0-2.4C2.8,16.7.1,13.9,0,10.5v-.2s0-.5,0-.5c0-.4.3-.8.8-.8s.7.3.7.6h0v.6c0,2.8,2.2,5.1,5,5.2h.2s.5,0,.5,0c2.8,0,5.1-2.2,5.2-5v-.2s0-.5,0-.5c0-.4.3-.8.8-.8ZM7,0c2.2,0,4,1.8,4,4v6c0,2.2-1.8,4-4,4s-4-1.8-4-4v-6C3,1.8,4.8,0,7,0ZM7,1.5c-1.4,0-2.5,1.1-2.5,2.5v6c0,1.4,1.1,2.5,2.5,2.5s2.5-1.1,2.5-2.5v-6c0-1.4-1.1-2.5-2.5-2.5Z"/>
</svg>